# xmcd
#
# Track frame offsets: 
#        150
#        17800
#        36672
#        56909
#        75205
#        95407
#        111237
#        133485
#        150097
#
# Disc length: 2280 seconds
#
# Revision: 1
# Processed by: cddbd v1.5.2PL0 Copyright (c) Steve Scherf et al.
# Submitted via: ExactAudioCopyFreeDBPlugin 1.0
#
DISCID=7008e609
DTITLE=许嵩 - 青年晚报
DYEAR=2016
DGENRE=
TTITLE0=奇谈
TTITLE1=雅俗共赏
TTITLE2=最佳歌手
TTITLE3=幻胖
TTITLE4=摄影艺术
TTITLE5=平行宇宙
TTITLE6=燕归巢
TTITLE7=摆脱
TTITLE8=早睡身体好
EXTD=
EXTT0=
EXTT1=
EXTT2=
EXTT3=
EXTT4=
EXTT5=
EXTT6=
EXTT7=
EXTT8=
PLAYORDER=
